PathFileType	4	(X/Y/Z)	C:\Users\IEUser\Desktop\02761_POST\experimental_data\task.trc
DataRate	CameraRate	NumFrames	NumMarkers	Units	OrigDataRate	OrigDataStartFrame	OrigNumFrames
100.000000	100.000000	4	51	mm	100.000000	135	361
Frame#	Time	C7			CLAV			LANK			LASI			LBHD			LELB			LFHD			LFIN			LFMH			LHEE			LKNE			LMED			LMET			LMIF			LPSI			LSHO			LTAD			LTHAP			LTHI			LTIAD			LTIB			LTOE			LTTU			LWRA			LWRB			RANK			RASI			RBAK			RBHD			RELB			RFHD			RFIN			RFMH			RHEE			RKNE			RMED			RMET			RMIF			RPSI			RSHO			RTAD			RTHAP			RTHI			RTIAD			RTIB			RTOE			RTTU			RWRA			RWRB			STRN			T10			
		X1	Y1	Z1	X2	Y2	Z2	X3	Y3	Z3	X4	Y4	Z4	X5	Y5	Z5	X6	Y6	Z6	X7	Y7	Z7	X8	Y8	Z8	X9	Y9	Z9	X10	Y10	Z10	X11	Y11	Z11	X12	Y12	Z12	X13	Y13	Z13	X14	Y14	Z14	X15	Y15	Z15	X16	Y16	Z16	X17	Y17	Z17	X18	Y18	Z18	X19	Y19	Z19	X20	Y20	Z20	X21	Y21	Z21	X22	Y22	Z22	X23	Y23	Z23	X24	Y24	Z24	X25	Y25	Z25	X26	Y26	Z26	X27	Y27	Z27	X28	Y28	Z28	X29	Y29	Z29	X30	Y30	Z30	X31	Y31	Z31	X32	Y32	Z32	X33	Y33	Z33	X34	Y34	Z34	X35	Y35	Z35	X36	Y36	Z36	X37	Y37	Z37	X38	Y38	Z38	X39	Y39	Z39	X40	Y40	Z40	X41	Y41	Z41	X42	Y42	Z42	X43	Y43	Z43	X44	Y44	Z44	X45	Y45	Z45	X46	Y46	Z46	X47	Y47	Z47	X48	Y48	Z48	X49	Y49	Z49	X50	Y50	Z50	X51	Y51	Z51	

136	1.35	-787.3292236328127	1325.937622070313	-325.1317138671876	-683.7932739257814	1247.441284179688	-310.0090026855469	-828.1381835937502	63.1533660888672	-388.5209960937501	-702.6451416015626	874.1824951171877	-410.6720275878907	-762.0161132812501	1460.426635742188	-393.3520507812501	-744.4527587890626	1016.090881347656	-592.6340942382814	-634.7672119140626	1478.408935546875	-373.2942810058594	-582.7994995117189	790.7921142578127	-702.4465332031251	-713.1732788085939	37.34841537475587	-310.3623657226563	-880.306335449219	48.86416244506837	-349.7117004394532	-724.1333007812501	458.028045654297	-414.5615844726564	-816.0017089843752	75.14591217041017	-307.8644104003907	-729.0086669921876	22.93896484375	-400.0536193847657	-755.4772338867189	73.11179351806642	-355.3998413085938	-856.8598632812502	916.0853271484377	-360.9059753417969	-762.4916992187501	1271.969482421875	-460.039764404297	-659.4286499023439	601.7686767578126	-361.5765380859376	-660.8942260742189	671.0838012695314	-371.2941894531251	-727.1730957031251	572.9771728515626	-479.9946594238282	-757.8740844726564	166.9295196533203	-363.2478027343751	-758.6112060546876	258.6258544921876	-453.8152160644532	-714.2291259765626	42.29726028442384	-359.5705871582032	-700.9576416015626	376.8832092285157	-365.4546813964844	-593.5513916015626	826.1978149414065	-647.5051879882814	-635.0304565429689	826.4288330078127	-697.8619995117189	-975.0418701171877	217.2857360839844	-216.6266326904297	-727.2789306640626	861.6528320312502	-202.5826873779297	-825.4567871093752	1193.63037109375	-205.5434112548829	-784.5494384765627	1453.321044921875	-266.8813781738282	-713.9752807617189	1026.288696289063	-89.42337036132814	-628.4221801757814	1477.711669921875	-259.3342590332032	-565.6441040039064	781.4804687500002	-55.06626510620119	-912.7095336914065	90.22081756591798	-228.2044677734376	-985.6443481445315	233.5309143066407	-273.4261474609376	-678.8889160156251	463.7495422363282	-162.3760528564453	-923.667175292969	192.7235412597657	-273.1661071777344	-951.168640136719	122.4370956420899	-168.4256439208985	-913.9896240234377	160.8645172119141	-209.8745117187501	-864.1375732421877	916.6543579101565	-271.2332153320313	-757.7744140625001	1298.988159179688	-171.6724090576172	-623.9235839843751	586.6041259765626	-219.5454254150391	-667.5637817382814	704.4829711914064	-226.0753631591797	-721.6805419921876	579.5915527343751	-115.8902130126953	-786.4263305664065	295.5365295410157	-216.2437744140626	-841.0469360351565	348.6386108398438	-143.1624298095703	-921.913757324219	110.3169784545899	-191.6797180175782	-674.8354492187501	373.9796447753907	-199.3728179931641	-575.7568969726564	838.7952880859377	-101.0856399536133	-607.1431274414064	824.3403930664065	-49.11168670654298	-654.8010864257814	1060.592163085938	-301.6390686035157	-838.0540771484377	1012.773132324219	-311.4437255859376	
137	1.36	-777.9451904296877	1327.360717773438	-325.7827148437501	-674.6357421875001	1248.620361328125	-310.4408874511719	-827.7461547851565	64.13327789306642	-388.5445861816407	-694.6721191406251	875.206970214844	-411.8985290527345	-752.7581787109376	1461.915283203125	-393.6712951660157	-730.4395751953126	1016.340393066406	-591.1588134765626	-625.4667968750001	1479.718505859375	-373.8796081542969	-561.9691772460939	791.7119140625002	-692.5971679687501	-712.9537353515626	37.55384826660157	-310.5875549316407	-880.2459716796877	50.84692764282228	-349.7905273437501	-722.0333251953126	458.8994445800782	-415.6853027343751	-815.2705688476565	76.49463653564455	-308.0636901855469	-728.9927978515626	22.89649963378907	-400.098114013672	-754.8831176757814	73.76953125000001	-355.8220520019532	-848.4840087890627	917.626892089844	-360.8657836914063	-752.5048828125001	1273.210693359375	-460.7320556640626	-654.1383666992189	601.5802612304689	-363.8942871093751	-654.2790527343751	671.0839233398439	-373.6893920898438	-724.4720458984376	573.9473266601564	-480.8568725585939	-757.0328979492189	167.930648803711	-363.9468383789063	-758.0018920898439	259.6266784667969	-454.6630859375001	-714.0159301757814	42.33261108398438	-359.7704772949219	-698.9786987304689	377.6140747070313	-366.7379150390626	-575.8841552734376	827.1277465820315	-638.5177001953126	-614.9674682617189	826.406188964844	-690.3392944335939	-951.5854492187502	214.7840270996094	-217.8511810302735	-717.9364624023439	863.6827392578127	-203.6116027832032	-816.6899414062502	1195.111206054688	-206.4980010986329	-775.0117797851565	1454.649658203125	-267.1607666015626	-707.2410888671876	1027.096801757813	-90.33258056640626	-618.8563842773439	1478.851318359375	-259.9199523925782	-560.3490600585939	781.5206298828127	-55.65388107299806	-885.1514282226565	89.51609802246095	-227.228744506836	-961.7969970703127	230.1506500244141	-274.9658813476563	-661.9157104492189	468.4871826171876	-161.5016784667969	-898.834899902344	191.1437072753907	-273.5105285644532	-925.444274902344	121.0489273071289	-168.4440307617188	-888.9204101562502	160.0857696533203	-209.9235382080079	-855.4224853515627	918.2800292968752	-271.2835998535157	-748.8385009765626	1300.228393554688	-172.247543334961	-609.7939453125001	592.3279418945314	-219.0494384765626	-657.0311279296876	708.2120361328126	-227.6677856445313	-706.7689208984376	583.5702514648439	-114.831771850586	-764.4614257812501	297.4378356933594	-216.3450012207032	-820.8132934570315	348.5104675292969	-143.1126098632813	-895.601257324219	109.5827026367188	-191.248031616211	-655.2115478515626	378.5916442871094	-198.3034667968751	-569.7631225585939	839.129577636719	-101.520751953125	-601.8078613281251	824.4570312500002	-50.00302886962892	-646.0671997070314	1061.718383789063	-302.3254089355469	-829.3503417968752	1014.288635253906	-311.9567871093751	
138	1.37	-768.5457763671877	1328.6689453125	-326.3960571289063	-665.4838867187501	1249.68017578125	-310.8851928710938	-827.3086547851565	65.21694946289064	-388.503143310547	-686.8198852539064	876.2346191406252	-413.0726623535157	-743.4507446289064	1463.337524414063	-393.944061279297	-716.4796142578126	1016.564880371094	-589.6643066406251	-616.1162719726564	1480.916015625	-374.3908081054688	-541.3525390625001	792.9321289062502	-682.4477539062501	-712.6875000000001	37.81244659423829	-310.8504028320313	-880.3343505859377	53.07495117187501	-349.9779357910157	-719.9225463867189	459.8451232910157	-416.851043701172	-814.4722290039065	77.89231109619142	-308.2583618164063	-728.9786987304689	22.85568809509278	-400.1445312500001	-754.2479248046876	74.4474334716797	-356.2693786621094	-840.2275390625002	919.0357666015627	-360.5696411132813	-742.5775756835939	1274.338745117188	-461.3810119628907	-648.9255371093751	601.5751953125001	-366.0424804687501	-647.9384765625001	671.2581787109376	-375.7080383300782	-721.5089721679689	575.1079101562501	-481.7354125976564	-756.1311645507814	168.983642578125	-364.6930847167969	-757.4502563476564	260.7096862792969	-455.5557556152345	-713.8039550781251	42.37168884277344	-359.9874572753907	-696.8651733398439	378.4073486328126	-368.1532592773438	-558.4057006835939	828.303649902344	-629.3350219726564	-595.0933227539064	826.5986938476565	-682.5721435546876	-927.7427368164065	211.4573516845704	-218.8740386962891	-708.5819702148439	865.5690917968752	-204.5767517089844	-807.9107666015627	1196.49462890625	-207.4145812988282	-765.4974975585939	1455.869506835938	-267.4338684082032	-700.6857299804689	1027.790649414063	-91.19323730468751	-609.2658691406251	1479.812377929688	-260.4283142089844	-555.1593017578126	781.5230712890627	-56.10932540893556	-856.8135375976565	88.47957611083986	-226.6608428955079	-937.936218261719	226.1500396728516	-276.2502746582032	-645.2336425781251	473.1331481933595	-160.7955322265625	-873.6418457031252	189.0972595214844	-273.7940979003907	-899.0037841796877	118.797607421875	-168.7036895751953	-863.3240966796877	158.6893920898438	-210.0374908447266	-846.7408447265627	919.6851196289065	-271.1332397460938	-739.8812866210939	1301.373291015625	-172.801498413086	-595.8848266601564	597.8643798828126	-218.8486633300782	-646.5782470703126	711.7043457031251	-229.4497985839844	-691.6590576171876	587.5999145507814	-113.7616424560547	-742.5307617187501	299.1263732910157	-216.2779388427735	-800.7893066406252	348.3496704101563	-143.2816314697266	-868.5114746093752	108.208236694336	-191.0785827636719	-635.8474121093751	383.1423339843751	-197.4287567138672	-563.9237060546876	839.3572387695315	-101.8894424438477	-596.7031860351564	824.4575195312502	-50.88671493530275	-637.3526611328126	1062.734008789063	-302.9729919433594	-820.689636230469	1015.689758300781	-312.2659912109376	
139	1.38	-759.1358642578126	1329.85498046875	-326.9633483886719	-656.3338623046876	1250.615234375	-311.3305053710938	-826.835144042969	66.40245819091798	-388.4084777832032	-679.0555419921876	877.2510986328127	-414.1815795898439	-734.0949096679689	1464.677490234375	-394.1723937988282	-702.5813598632814	1016.761962890625	-588.1724243164064	-606.7153930664064	1481.992065429688	-374.8312683105469	-521.0019531250001	794.4585571289065	-672.0452270507814	-712.3884887695314	38.11105346679688	-311.1418151855469	-880.5549316406252	55.51485443115236	-350.2475280761719	-717.7670288085939	460.8347473144532	-418.0313720703126	-813.6157226562502	79.31639099121095	-308.4439392089844	-728.9686889648439	22.81578254699707	-400.1918334960939	-753.5864257812501	75.12082672119142	-356.7389221191407	-832.0647583007815	920.3040771484377	-360.0338439941407	-732.7077636718751	1275.33642578125	-461.9756469726564	-643.7744140625001	601.6934204101564	-368.0081176757813	-641.8363037109376	671.5330200195314	-377.3742980957032	-718.3155517578126	576.3965454101564	-482.6343383789064	-755.1768798828126	170.082275390625	-365.5014343261719	-756.9509277343751	261.8721618652344	-456.4793090820314	-713.6004638671876	42.40429306030274	-360.2113952636719	-694.5905761718751	379.2486267089844	-369.6423645019532	-541.1248168945314	829.7446289062502	-620.0140991210939	-575.4438476562501	827.0239257812502	-674.5944824218751	-903.4714965820315	207.366195678711	-219.6898345947266	-699.2333374023439	867.2767333984377	-205.4737548828126	-799.1127929687502	1197.770385742188	-208.2756805419922	-756.0111694335939	1456.97802734375	-267.7042846679688	-694.2799072265626	1028.376098632813	-91.99997711181642	-599.6492309570314	1480.594116210938	-260.8684692382813	-550.0726318359376	781.464294433594	-56.44283294677736	-827.7203369140627	87.15560150146486	-226.4499053955079	-914.049743652344	221.5770721435547	-277.2860412597657	-628.8075561523439	477.6365356445314	-160.2399139404297	-848.1010742187502	186.614013671875	-274.0348205566407	-871.8259887695315	115.7727355957032	-169.170394897461	-837.211608886719	156.7420043945313	-210.2152557373047	-838.0801391601565	920.8728027343752	-270.7731628417969	-730.8959960937501	1302.419799804688	-173.3241119384766	-582.2467041015626	603.1470947265626	-218.9891204833985	-636.1672973632814	714.9558715820314	-231.2767639160157	-676.4542846679689	591.6296386718751	-112.6856994628907	-720.6654052734376	300.5741271972657	-216.0435638427735	-780.987243652344	348.1614990234376	-143.6546630859375	-840.6765747070315	106.2720336914063	-191.1575164794922	-616.7774658203126	387.6022949218751	-196.7259216308594	-558.2367553710939	839.465515136719	-102.1958694458008	-591.8149414062501	824.3381958007815	-51.75070953369142	-628.6500854492189	1063.634399414063	-303.5719909667969	-812.0686645507815	1016.968811035156	-312.3679199218751	
